<svg xmlns="http://www.w3.org/2000/svg" viewBox="0 0 20 20"><polygon points="10.46 17.747 7.014 14.292 8.076 13.232 10.461 15.624 16.377 9.708 17.437 10.768 10.46 17.747"/><path d="M10.147,12.276c.063.153.138.331.226.531a2.7,2.7,0,0,0,.144.286L12,11.614l-.01-.027L9.4,5.189c-.122-.321-.222-.576-.3-.768A2.871,2.871,0,0,0,8.8,3.883a1.355,1.355,0,0,0-.453-.409,1.4,1.4,0,0,0-.7-.159,1.387,1.387,0,0,0-.693.159,1.314,1.314,0,0,0-.453.416,3.4,3.4,0,0,0-.325.646L5.92,5.2,3.383,11.641c-.1.257-.178.457-.223.6a1.4,1.4,0,0,0-.067.419.852.852,0,0,0,.29.629.941.941,0,0,0,.67.277.756.756,0,0,0,.643-.26,4.432,4.432,0,0,0,.473-1l.473-1.272H9.673ZM6.17,9.524,7.638,5.432,9.132,9.524Z"/></svg>
